<svg width="20" height="20" viewBox="0 0 20 20" fill="none" xmlns="http://www.w3.org/2000/svg">
<g id="Frame 66">
<path id="Vector" d="M12.2542 10.9409V12.2697C12.2542 14.8383 10.1826 16.9205 7.62712 16.9205M3 10.9409V12.2697C3 14.8383 5.07163 16.9205 7.62712 16.9205M7.62712 16.9205V18.9137M7.62712 18.9137H4.98305M7.62712 18.9137H10.2712M7.62712 5.62561C6.53191 5.62561 5.64407 6.51801 5.64407 7.61883V12.2697C5.64407 13.3705 6.53191 14.2629 7.62712 14.2629C8.72233 14.2629 9.61017 13.3705 9.61017 12.2697V10.8459M13.4745 2L12.72 3.96166C12.6142 4.23662 12.5614 4.3741 12.4791 4.48974C12.4063 4.59223 12.3167 4.68178 12.2142 4.75466C12.0986 4.83689 11.9611 4.88976 11.6861 4.99552L9.72449 5.75L11.6861 6.50448C11.9611 6.61024 12.0986 6.66312 12.2142 6.74534C12.3167 6.81822 12.4063 6.90777 12.4791 7.01026C12.5614 7.1259 12.6142 7.26338 12.72 7.53834L13.4745 9.5L14.229 7.53834C14.3347 7.26338 14.3876 7.1259 14.4698 7.01026C14.5427 6.90777 14.6323 6.81822 14.7347 6.74534C14.8504 6.66312 14.9879 6.61024 15.2628 6.50448L17.2245 5.75L15.2628 4.99552C14.9879 4.88976 14.8504 4.83689 14.7347 4.75466C14.6323 4.68178 14.5427 4.59223 14.4698 4.48974C14.3876 4.3741 14.3347 4.23662 14.229 3.96166L13.4745 2Z" stroke="#848197" stroke-width="1.5" stroke-linecap="round" stroke-linejoin="round"/>
</g>
</svg>
