<svg width="16" height="16" viewBox="0 0 16 16" fill="none" xmlns="http://www.w3.org/2000/svg">
<g id="edit-05" clip-path="url(#clip0_239_110)">
<path id="Icon" d="M7.33334 2.66617H4.53334C3.41323 2.66617 2.85318 2.66617 2.42535 2.88415C2.04903 3.0759 1.74307 3.38186 1.55132 3.75819C1.33334 4.18601 1.33334 4.74606 1.33334 5.86617V11.4662C1.33334 12.5863 1.33334 13.1463 1.55132 13.5741C1.74307 13.9505 2.04903 14.2564 2.42535 14.4482C2.85318 14.6662 3.41323 14.6662 4.53334 14.6662H10.1333C11.2534 14.6662 11.8135 14.6662 12.2413 14.4482C12.6176 14.2564 12.9236 13.9505 13.1153 13.5741C13.3333 13.1463 13.3333 12.5863 13.3333 11.4662V8.66617M5.33332 10.6662H6.44968C6.7758 10.6662 6.93886 10.6662 7.09231 10.6293C7.22836 10.5967 7.35842 10.5428 7.47772 10.4697C7.61227 10.3872 7.72757 10.2719 7.95817 10.0413L14.3333 3.66617C14.8856 3.11388 14.8856 2.21845 14.3333 1.66617C13.7811 1.11388 12.8856 1.11388 12.3333 1.66617L5.95816 8.04133C5.72756 8.27193 5.61225 8.38723 5.5298 8.52179C5.45669 8.64108 5.40282 8.77114 5.37016 8.90719C5.33332 9.06064 5.33332 9.2237 5.33332 9.54982V10.6662Z" stroke="#848197" stroke-width="1.5" stroke-linecap="round" stroke-linejoin="round"/>
</g>
<defs>
<clipPath id="clip0_239_110">
<rect width="16" height="16" fill="white"/>
</clipPath>
</defs>
</svg>
