<svg width="20" height="20" viewBox="0 0 20 20" fill="none" xmlns="http://www.w3.org/2000/svg">
<g id="Frame 63">
<path id="Vector" d="M10.5809 3.3688H4.89133C3.61675 3.3688 2.97945 3.3688 2.49263 3.61685C2.0644 3.83504 1.71624 4.1832 1.49805 4.61142C1.25 5.09825 1.25 5.73554 1.25 7.01013V13.3825C1.25 14.6571 1.25 15.2943 1.49805 15.7812C1.71624 16.2094 2.0644 16.5576 2.49263 16.7758C2.97945 17.0238 3.61675 17.0238 4.89133 17.0238H11.8706C12.576 17.0238 12.9288 17.0238 13.2182 16.9463C14.0036 16.7358 14.617 16.1224 14.8275 15.337C14.905 15.0476 14.905 14.6948 14.905 13.9894M6.93959 7.54116C6.93959 8.3791 6.2603 9.05838 5.42236 9.05838C4.58442 9.05838 3.90514 8.3791 3.90514 7.54116C3.90514 6.70322 4.58442 6.02394 5.42236 6.02394C6.2603 6.02394 6.93959 6.70322 6.93959 7.54116ZM10.3458 10.1342L3.92877 15.9679C3.56783 16.296 3.38736 16.46 3.3714 16.6022C3.35757 16.7254 3.4048 16.8475 3.49791 16.9294C3.60532 17.0238 3.84922 17.0238 4.33701 17.0238H11.4579C12.5496 17.0238 13.0955 17.0238 13.5243 16.8404C14.0625 16.6101 14.4913 16.1813 14.7216 15.6431C14.905 15.2143 14.905 14.6684 14.905 13.5767C14.905 13.2093 14.905 13.0256 14.8648 12.8546C14.8144 12.6396 14.7176 12.4383 14.5813 12.2646C14.4728 12.1264 14.3294 12.0116 14.0425 11.7821L11.9205 10.0845C11.6334 9.85485 11.4899 9.74002 11.3318 9.69949C11.1925 9.66377 11.0458 9.6684 10.909 9.71283C10.7538 9.76324 10.6178 9.8869 10.3458 10.1342ZM15.0924 2.5L14.3565 4.41332C14.2534 4.6815 14.2018 4.81559 14.1216 4.92839C14.0505 5.02835 13.9632 5.11569 13.8632 5.18678C13.7504 5.26698 13.6163 5.31855 13.3481 5.4217L11.4348 6.15759L13.3481 6.89348C13.6163 6.99663 13.7504 7.0482 13.8632 7.12841C13.9632 7.19949 14.0505 7.28683 14.1216 7.38679C14.2018 7.49959 14.2534 7.63368 14.3565 7.90186L15.0924 9.81518L15.8283 7.90186C15.9314 7.63368 15.983 7.49959 16.0632 7.38679C16.1343 7.28683 16.2216 7.19949 16.3216 7.12841C16.4344 7.0482 16.5685 6.99663 16.8367 6.89348L18.75 6.15759L16.8367 5.4217C16.5685 5.31855 16.4344 5.26698 16.3216 5.18678C16.2216 5.11569 16.1343 5.02835 16.0632 4.92839C15.983 4.81559 15.9314 4.6815 15.8283 4.41332L15.0924 2.5Z" stroke="#848197" stroke-width="1.46304" stroke-linecap="round" stroke-linejoin="round"/>
</g>
</svg>
