<svg width="20" height="19" viewBox="0 0 20 19" fill="none" xmlns="http://www.w3.org/2000/svg">
<g id="Frame 64">
<path id="Vector" d="M8.76761 5.03418H5.45C3.97986 5.03418 3.24479 5.03418 2.68327 5.32029C2.18935 5.57196 1.78778 5.97353 1.53611 6.46745C1.25 7.02897 1.25 7.76404 1.25 9.23418V13.0842C1.25 14.5543 1.25 15.2894 1.53611 15.8509C1.78778 16.3448 2.18935 16.7464 2.68327 16.9981C3.24479 17.2842 3.97986 17.2842 5.45 17.2842H10.175C11.6451 17.2842 12.3802 17.2842 12.9417 16.9981C13.4357 16.7464 13.8372 16.3448 14.0889 15.8509C14.375 15.2894 14.375 14.5543 14.375 13.0842V9.84668M14.375 11.1592L17.555 7.97915C17.9299 7.60433 18.1173 7.41691 18.2782 7.40425C18.4178 7.39326 18.5542 7.44977 18.6452 7.55626C18.75 7.679 18.75 7.94404 18.75 8.47413V13.8442C18.75 14.3743 18.75 14.6394 18.6452 14.7621C18.5542 14.8686 18.4178 14.9251 18.2782 14.9141C18.1173 14.9014 17.9299 14.714 17.555 14.3392L14.375 11.1592ZM13.9375 1.31543L13.2773 3.03188C13.1848 3.27247 13.1385 3.39277 13.0666 3.49395C13.0028 3.58363 12.9245 3.66199 12.8348 3.72575C12.7336 3.7977 12.6133 3.84397 12.3727 3.93651L10.6562 4.59668L12.3727 5.25685C12.6133 5.34939 12.7336 5.39566 12.8348 5.4676C12.9245 5.53137 13.0028 5.60973 13.0666 5.69941C13.1385 5.80059 13.1848 5.92089 13.2773 6.16148L13.9375 7.87793L14.5977 6.16148C14.6902 5.92089 14.7365 5.80059 14.8084 5.69941C14.8722 5.60973 14.9505 5.53137 15.0402 5.4676C15.1414 5.39566 15.2617 5.34939 15.5023 5.25685L17.2188 4.59668L15.5023 3.93651C15.2617 3.84397 15.1414 3.7977 15.0402 3.72575C14.9505 3.66199 14.8722 3.58363 14.8084 3.49395C14.7365 3.39277 14.6902 3.27247 14.5977 3.03188L13.9375 1.31543Z" stroke="#848197" stroke-width="1.5" stroke-linecap="round" stroke-linejoin="round"/>
</g>
</svg>
